<svg width="140" height="34" viewBox="0 0 140 34" fill="none" xmlns="http://www.w3.org/2000/svg">
<path d="M15.1612 0.621216V11.9041H4.88077V0.621216H0V27.5546H4.88077V16.6381H15.1612V27.5546H20.042V0.621216H15.1612Z" fill="#33475B"/>
<path d="M35.6624 18.8484C35.6624 19.9278 35.237 20.963 34.4798 21.7262C33.7226 22.4895 32.6955 22.9183 31.6246 22.9183C30.5537 22.9183 29.5267 22.4895 28.7695 21.7262C28.0122 20.963 27.5868 19.9278 27.5868 18.8484V7.31238H22.9571V18.8484C22.9571 21.1632 23.8694 23.3832 25.4933 25.02C27.1172 26.6568 29.3197 27.5763 31.6163 27.5763C33.9128 27.5763 36.1153 26.6568 37.7392 25.02C39.3631 23.3832 40.2754 21.1632 40.2754 18.8484V7.31238H35.6624V18.8484Z" fill="#33475B"/>
<path d="M69.9644 8.5007C69.9644 6.13613 71.5164 5.38651 73.2167 5.38651C74.5869 5.38651 76.3972 6.43743 77.5809 7.71251L80.6131 4.11142C79.0994 2.04815 76.0289 0.621216 73.5156 0.621216C68.4937 0.621216 64.8612 3.58597 64.8612 8.5007C64.8612 17.6191 75.9189 14.7267 75.9189 19.8294C75.9189 21.4034 74.4028 22.7942 72.6666 22.7942C69.9285 22.7942 69.0413 21.4444 67.7835 20.0174L64.4188 23.5438C66.5711 26.2072 69.2255 27.5595 72.406 27.5595C77.1768 27.5595 81.0149 24.5585 81.0149 19.868C81.0149 9.74445 69.9572 12.89 69.9572 8.5007" fill="#33475B"/>
<path d="M138.371 23.252C135.636 23.252 134.859 22.0589 134.859 20.2318V12.1451H139.11V8.04744H134.859V2.64099L130.164 4.76452V21.237C130.164 25.4503 133.048 27.5738 137.004 27.5738C137.624 27.5852 138.244 27.5351 138.854 27.4244L140 23.1749C139.483 23.211 138.89 23.2472 138.371 23.2472" fill="#33475B"/>
<path d="M53.2844 7.44725C50.9911 7.44725 49.3913 8.11733 47.8441 9.64791V0.782593H43.2072V17.214C43.2072 23.3653 47.6193 27.5786 52.5766 27.5786C58.0767 27.5786 62.9144 23.2906 62.9144 17.5153C62.9144 11.8124 58.4617 7.44966 53.2844 7.44966V7.44725ZM53.2557 22.876C52.2152 22.876 51.198 22.565 50.3329 21.9823C49.4677 21.3996 48.7934 20.5714 48.3952 19.6025C47.997 18.6335 47.8928 17.5673 48.0958 16.5387C48.2988 15.51 48.7999 14.5652 49.5356 13.8235C50.2714 13.0819 51.2088 12.5769 52.2294 12.3723C53.2499 12.1677 54.3077 12.2727 55.269 12.674C56.2303 13.0754 57.052 13.7551 57.6301 14.6271C58.2082 15.4992 58.5167 16.5244 58.5167 17.5732C58.5167 18.9796 57.9624 20.3284 56.9758 21.3228C55.9892 22.3173 54.651 22.876 53.2557 22.876Z" fill="#33475B"/>
<path d="M103.632 17.2697C103.632 11.4848 98.8038 7.20642 93.2941 7.20642C88.3368 7.20642 83.9248 11.4197 83.9248 17.571V34.0121H88.5616V25.1347C90.1064 26.6629 91.7086 27.3354 93.9996 27.3354C99.1769 27.3354 103.63 22.975 103.63 17.2697H103.632ZM99.2414 17.2118C99.2414 18.2606 98.9329 19.2859 98.3548 20.1579C97.7767 21.03 96.9551 21.7096 95.9937 22.111C95.0324 22.5123 93.9746 22.6174 92.9541 22.4127C91.9335 22.2081 90.9961 21.7031 90.2604 20.9615C89.5246 20.2199 89.0235 19.275 88.8205 18.2464C88.6175 17.2177 88.7217 16.1515 89.1199 15.1825C89.5181 14.2136 90.1924 13.3854 91.0576 12.8027C91.9228 12.22 92.9399 11.909 93.9804 11.909C95.3757 11.909 96.7139 12.4677 97.7005 13.4622C98.6872 14.4567 99.2414 15.8054 99.2414 17.2118Z" fill="#33475B"/>
</svg>
